<mxfile host="app.diagrams.net" modified="2022-09-08T07:17:41.996Z" agent="5.0 (Macintosh; Intel Mac OS X 10_15_7) AppleWebKit/537.36 (KHTML, like Gecko) Chrome/104.0.0.0 Safari/537.36" etag="9qnnuaPsD-ZQAHBrv_XB" version="20.2.8" type="github">
  <diagram id="G3seGN704pD80zqX40h4" name="第 1 页">
    <mxGraphModel dx="946" dy="559" grid="1" gridSize="10" guides="1" tooltips="1" connect="1" arrows="1" fold="1" page="1" pageScale="1" pageWidth="827" pageHeight="1169" math="0" shadow="0">
      <root>
        <mxCell id="0" />
        <mxCell id="1" parent="0" />
        <mxCell id="vj_nRWx_vZ0_utx0xR_P-1" value="采购商" style="shape=umlLifeline;perimeter=lifelinePerimeter;whiteSpace=wrap;html=1;container=1;collapsible=0;recursiveResize=0;outlineConnect=0;" vertex="1" parent="1">
          <mxGeometry x="90" y="80" width="100" height="300" as="geometry" />
        </mxCell>
        <mxCell id="vj_nRWx_vZ0_utx0xR_P-5" value="" style="html=1;points=[];perimeter=orthogonalPerimeter;" vertex="1" parent="vj_nRWx_vZ0_utx0xR_P-1">
          <mxGeometry x="45" y="90" width="10" height="80" as="geometry" />
        </mxCell>
        <mxCell id="vj_nRWx_vZ0_utx0xR_P-34" value="退款" style="html=1;verticalAlign=bottom;endArrow=open;dashed=1;endSize=8;rounded=0;entryX=0.6;entryY=1;entryDx=0;entryDy=0;entryPerimeter=0;" edge="1" parent="vj_nRWx_vZ0_utx0xR_P-1" target="vj_nRWx_vZ0_utx0xR_P-5">
          <mxGeometry relative="1" as="geometry">
            <mxPoint x="170" y="170" as="sourcePoint" />
            <mxPoint x="60" y="170" as="targetPoint" />
          </mxGeometry>
        </mxCell>
        <mxCell id="vj_nRWx_vZ0_utx0xR_P-2" value="平台主商户" style="shape=umlLifeline;perimeter=lifelinePerimeter;whiteSpace=wrap;html=1;container=1;collapsible=0;recursiveResize=0;outlineConnect=0;" vertex="1" parent="1">
          <mxGeometry x="220" y="80" width="100" height="300" as="geometry" />
        </mxCell>
        <mxCell id="vj_nRWx_vZ0_utx0xR_P-6" value="" style="html=1;points=[];perimeter=orthogonalPerimeter;" vertex="1" parent="vj_nRWx_vZ0_utx0xR_P-2">
          <mxGeometry x="45" y="90" width="10" height="80" as="geometry" />
        </mxCell>
        <mxCell id="vj_nRWx_vZ0_utx0xR_P-3" value="供应商子商户" style="shape=umlLifeline;perimeter=lifelinePerimeter;whiteSpace=wrap;html=1;container=1;collapsible=0;recursiveResize=0;outlineConnect=0;" vertex="1" parent="1">
          <mxGeometry x="350" y="80" width="100" height="300" as="geometry" />
        </mxCell>
        <mxCell id="vj_nRWx_vZ0_utx0xR_P-7" value="" style="html=1;points=[];perimeter=orthogonalPerimeter;" vertex="1" parent="vj_nRWx_vZ0_utx0xR_P-3">
          <mxGeometry x="45" y="90" width="10" height="80" as="geometry" />
        </mxCell>
        <mxCell id="vj_nRWx_vZ0_utx0xR_P-4" value="供应商银行账户" style="shape=umlLifeline;perimeter=lifelinePerimeter;whiteSpace=wrap;html=1;container=1;collapsible=0;recursiveResize=0;outlineConnect=0;" vertex="1" parent="1">
          <mxGeometry x="480" y="80" width="100" height="300" as="geometry" />
        </mxCell>
        <mxCell id="vj_nRWx_vZ0_utx0xR_P-8" value="" style="html=1;points=[];perimeter=orthogonalPerimeter;" vertex="1" parent="vj_nRWx_vZ0_utx0xR_P-4">
          <mxGeometry x="45" y="90" width="10" height="80" as="geometry" />
        </mxCell>
        <mxCell id="vj_nRWx_vZ0_utx0xR_P-27" value="支付" style="html=1;verticalAlign=bottom;endArrow=block;rounded=0;entryX=0.1;entryY=0;entryDx=0;entryDy=0;entryPerimeter=0;exitX=0.7;exitY=0;exitDx=0;exitDy=0;exitPerimeter=0;" edge="1" parent="1" source="vj_nRWx_vZ0_utx0xR_P-5" target="vj_nRWx_vZ0_utx0xR_P-6">
          <mxGeometry width="80" relative="1" as="geometry">
            <mxPoint x="150" y="170" as="sourcePoint" />
            <mxPoint x="230" y="170" as="targetPoint" />
          </mxGeometry>
        </mxCell>
        <mxCell id="vj_nRWx_vZ0_utx0xR_P-35" value="确认收货" style="html=1;verticalAlign=bottom;endArrow=block;rounded=0;entryX=0;entryY=0.25;entryDx=0;entryDy=0;entryPerimeter=0;endSize=6;exitX=1;exitY=0.25;exitDx=0;exitDy=0;exitPerimeter=0;" edge="1" parent="1" source="vj_nRWx_vZ0_utx0xR_P-6" target="vj_nRWx_vZ0_utx0xR_P-7">
          <mxGeometry width="80" relative="1" as="geometry">
            <mxPoint x="300" y="190" as="sourcePoint" />
            <mxPoint x="350" y="190" as="targetPoint" />
          </mxGeometry>
        </mxCell>
        <mxCell id="vj_nRWx_vZ0_utx0xR_P-36" value="自动结算" style="html=1;verticalAlign=bottom;endArrow=block;rounded=0;endSize=6;entryX=-0.2;entryY=0.5;entryDx=0;entryDy=0;entryPerimeter=0;exitX=1;exitY=0.5;exitDx=0;exitDy=0;exitPerimeter=0;" edge="1" parent="1" source="vj_nRWx_vZ0_utx0xR_P-7" target="vj_nRWx_vZ0_utx0xR_P-8">
          <mxGeometry width="80" relative="1" as="geometry">
            <mxPoint x="420" y="210" as="sourcePoint" />
            <mxPoint x="490" y="210" as="targetPoint" />
          </mxGeometry>
        </mxCell>
        <mxCell id="vj_nRWx_vZ0_utx0xR_P-37" value="易宝" style="text;html=1;align=center;verticalAlign=middle;resizable=0;points=[];autosize=1;strokeColor=none;fillColor=none;" vertex="1" parent="1">
          <mxGeometry x="315" y="25" width="50" height="30" as="geometry" />
        </mxCell>
        <mxCell id="vj_nRWx_vZ0_utx0xR_P-38" value="采购商" style="shape=umlLifeline;perimeter=lifelinePerimeter;whiteSpace=wrap;html=1;container=1;collapsible=0;recursiveResize=0;outlineConnect=0;" vertex="1" parent="1">
          <mxGeometry x="160" y="435" width="100" height="300" as="geometry" />
        </mxCell>
        <mxCell id="vj_nRWx_vZ0_utx0xR_P-39" value="" style="html=1;points=[];perimeter=orthogonalPerimeter;" vertex="1" parent="vj_nRWx_vZ0_utx0xR_P-38">
          <mxGeometry x="45" y="90" width="10" height="80" as="geometry" />
        </mxCell>
        <mxCell id="vj_nRWx_vZ0_utx0xR_P-40" value="退款" style="html=1;verticalAlign=bottom;endArrow=open;dashed=1;endSize=8;rounded=0;entryX=0.6;entryY=1;entryDx=0;entryDy=0;entryPerimeter=0;" edge="1" parent="vj_nRWx_vZ0_utx0xR_P-38" target="vj_nRWx_vZ0_utx0xR_P-39">
          <mxGeometry relative="1" as="geometry">
            <mxPoint x="170" y="170" as="sourcePoint" />
            <mxPoint x="60" y="170" as="targetPoint" />
          </mxGeometry>
        </mxCell>
        <mxCell id="vj_nRWx_vZ0_utx0xR_P-41" value="供应商子商户" style="shape=umlLifeline;perimeter=lifelinePerimeter;whiteSpace=wrap;html=1;container=1;collapsible=0;recursiveResize=0;outlineConnect=0;" vertex="1" parent="1">
          <mxGeometry x="290" y="435" width="100" height="300" as="geometry" />
        </mxCell>
        <mxCell id="vj_nRWx_vZ0_utx0xR_P-42" value="" style="html=1;points=[];perimeter=orthogonalPerimeter;" vertex="1" parent="vj_nRWx_vZ0_utx0xR_P-41">
          <mxGeometry x="45" y="90" width="10" height="80" as="geometry" />
        </mxCell>
        <mxCell id="vj_nRWx_vZ0_utx0xR_P-43" value="供应商银行账户" style="shape=umlLifeline;perimeter=lifelinePerimeter;whiteSpace=wrap;html=1;container=1;collapsible=0;recursiveResize=0;outlineConnect=0;" vertex="1" parent="1">
          <mxGeometry x="420" y="435" width="100" height="300" as="geometry" />
        </mxCell>
        <mxCell id="vj_nRWx_vZ0_utx0xR_P-44" value="" style="html=1;points=[];perimeter=orthogonalPerimeter;" vertex="1" parent="vj_nRWx_vZ0_utx0xR_P-43">
          <mxGeometry x="45" y="90" width="10" height="80" as="geometry" />
        </mxCell>
        <mxCell id="vj_nRWx_vZ0_utx0xR_P-45" value="支付" style="html=1;verticalAlign=bottom;endArrow=block;rounded=0;entryX=0.1;entryY=0;entryDx=0;entryDy=0;entryPerimeter=0;exitX=0.7;exitY=0;exitDx=0;exitDy=0;exitPerimeter=0;" edge="1" parent="1" source="vj_nRWx_vZ0_utx0xR_P-39">
          <mxGeometry width="80" relative="1" as="geometry">
            <mxPoint x="220" y="525" as="sourcePoint" />
            <mxPoint x="336" y="525" as="targetPoint" />
          </mxGeometry>
        </mxCell>
        <mxCell id="vj_nRWx_vZ0_utx0xR_P-46" value="T+1划付" style="html=1;verticalAlign=bottom;endArrow=block;rounded=0;endSize=6;entryX=-0.2;entryY=0.5;entryDx=0;entryDy=0;entryPerimeter=0;exitX=1;exitY=0.5;exitDx=0;exitDy=0;exitPerimeter=0;" edge="1" parent="1" source="vj_nRWx_vZ0_utx0xR_P-42" target="vj_nRWx_vZ0_utx0xR_P-44">
          <mxGeometry width="80" relative="1" as="geometry">
            <mxPoint x="490" y="565" as="sourcePoint" />
            <mxPoint x="560" y="565" as="targetPoint" />
          </mxGeometry>
        </mxCell>
        <mxCell id="vj_nRWx_vZ0_utx0xR_P-47" value="银联" style="text;html=1;align=center;verticalAlign=middle;resizable=0;points=[];autosize=1;strokeColor=none;fillColor=none;" vertex="1" parent="1">
          <mxGeometry x="315" y="380" width="50" height="30" as="geometry" />
        </mxCell>
      </root>
    </mxGraphModel>
  </diagram>
</mxfile>
